<svg xmlns="http://www.w3.org/2000/svg" viewBox="0 0 400 400" width="400" height="400">
  <rect width="400" height="400" rx="36" fill="#1b202b"/>
  <ellipse cx="196" cy="238" rx="132" ry="112" fill="#d4756b"
           stroke="#a34d47" stroke-width="7"/>
  <path d="M84 196 Q196 150 306 198 Q300 158 196 132 Q100 152 84 196 Z"
        fill="#f2d9c4" stroke="#c9a98f" stroke-width="6"/>
  <g stroke="#a34d47" stroke-width="4" opacity="0.55" fill="none">
    <path d="M120 244 Q196 214 274 244"/>
    <path d="M126 286 Q196 258 268 286"/>
    <path d="M150 202 L150 320"/><path d="M196 194 L196 348"/><path d="M242 202 L242 320"/>
  </g>
  <path d="M186 132 L186 74 Q186 52 208 52 Q230 52 230 74 L230 132 Z"
        fill="#f7f3e8" stroke="#cbbfae" stroke-width="6"/>
  <circle cx="196" cy="66" r="24" fill="#f7f3e8" stroke="#cbbfae" stroke-width="6"/>
  <circle cx="226" cy="70" r="20" fill="#f7f3e8" stroke="#cbbfae" stroke-width="6"/>
</svg>
